<svg xmlns="http://www.w3.org/2000/svg" height="15" width="80" version="1.0"><defs><clipPath id="a" clipPathUnits="userSpaceOnUse"><rect height="12.484" width="20.614" y="239.12" x="172"/></clipPath></defs><g transform="matrix(.9875 0 0 .93335 -167.875 -221.4743)"><rect height="15" width="80" stroke="#000" y="237.86" x="170.5" stroke-width="1.0416" fill="#fff"/><rect height="12" width="77" y="239.36" x="172"/><path fill="#adadad" d="m172 239.38v12h20.33c1.31-1.76 2.2-3.79 2.2-6s-0.87-4.26-2.16-6h-20.37z"/><g clip-path="url(#a)" transform="translate(6.8342 9.507) scale(.96125)"><path d="m190.06 245.36c0.01 3.89-3.15 7.05-7.04 7.05-3.89 0.01-7.05-3.15-7.05-7.04v-0.01c0-3.89 3.15-7.05 7.04-7.05 3.9 0 7.05 3.15 7.05 7.04v0.01z" fill="#fff"/><path d="m188.75 239.62c1.56 1.56 2.34 3.48 2.34 5.74 0 2.27-0.77 4.16-2.3 5.68-1.63 1.61-3.56 2.41-5.78 2.41-2.2 0-4.09-0.8-5.68-2.39s-2.39-3.49-2.39-5.7 0.8-4.12 2.39-5.74c1.55-1.56 3.44-2.34 5.68-2.34 2.26 0 4.17 0.78 5.74 2.34zm-10.37 1.05c-1.32 1.34-1.98 2.9-1.98 4.69 0 1.8 0.65 3.35 1.96 4.65 1.31 1.31 2.86 1.97 4.67 1.97s3.38-0.66 4.71-1.99c1.27-1.22 1.9-2.77 1.9-4.63 0-1.84-0.64-3.41-1.93-4.7-1.29-1.28-2.85-1.93-4.68-1.93s-3.38 0.65-4.65 1.94zm3.48 3.91c-0.2-0.44-0.51-0.66-0.91-0.66-0.71 0-1.07 0.48-1.07 1.43 0 0.96 0.36 1.44 1.07 1.44 0.47 0 0.81-0.23 1.01-0.7l0.99 0.53c-0.47 0.83-1.18 1.25-2.12 1.25-0.73 0-1.31-0.22-1.75-0.67-0.43-0.44-0.65-1.06-0.65-1.84 0-0.77 0.22-1.38 0.67-1.83s1.01-0.68 1.69-0.68c0.99 0 1.71 0.39 2.14 1.18l-1.07 0.55zm4.64 0c-0.2-0.44-0.49-0.66-0.88-0.66-0.73 0-1.1 0.48-1.1 1.43 0 0.96 0.37 1.44 1.1 1.44 0.47 0 0.8-0.23 0.98-0.7l1.01 0.53c-0.47 0.83-1.17 1.25-2.11 1.25-0.73 0-1.31-0.22-1.74-0.67-0.44-0.44-0.66-1.06-0.66-1.84 0-0.77 0.22-1.38 0.67-1.83 0.44-0.45 1-0.68 1.69-0.68 0.99 0 1.7 0.39 2.13 1.18l-1.09 0.55z"/></g></g><path fill="#fff" d="m357.42 389.69c0.25 0 0.43-0.06 0.56-0.17 0.12-0.1 0.19-0.26 0.19-0.47s-0.07-0.36-0.19-0.47c-0.13-0.11-0.31-0.16-0.56-0.16h-0.86v1.27h0.86m0.05 2.62c0.32 0 0.55-0.07 0.71-0.2s0.24-0.33 0.24-0.59-0.08-0.46-0.24-0.59-0.39-0.19-0.71-0.19h-0.91v1.57h0.91m1.45-2.16c0.34 0.1 0.59 0.28 0.78 0.54 0.18 0.26 0.27 0.57 0.27 0.95 0 0.58-0.19 1.01-0.59 1.3-0.39 0.28-0.99 0.42-1.79 0.42h-2.59v-6h2.34c0.84 0 1.44 0.13 1.82 0.38s0.57 0.66 0.57 1.21c0 0.29-0.07 0.54-0.21 0.75-0.14 0.2-0.34 0.35-0.6 0.45m0.92-2.79h1.7l1.38 2.14 1.37-2.14h1.71l-2.3 3.47v2.53h-1.56v-2.53l-2.3-3.47m5.32 3.05h2.54v1.17h-2.54v-1.17m7.96-2.86v1.27c-0.33-0.15-0.65-0.26-0.97-0.33-0.32-0.08-0.61-0.12-0.89-0.12-0.38 0-0.65 0.06-0.83 0.16s-0.27 0.26-0.27 0.47c0 0.16 0.06 0.29 0.18 0.38s0.34 0.16 0.66 0.23l0.66 0.13c0.67 0.14 1.15 0.34 1.43 0.61 0.29 0.28 0.43 0.66 0.43 1.17 0 0.66-0.2 1.15-0.6 1.48-0.39 0.32-0.99 0.48-1.81 0.48-0.38 0-0.76-0.04-1.15-0.11-0.38-0.07-0.77-0.18-1.16-0.32v-1.31c0.39 0.21 0.76 0.36 1.12 0.46 0.36 0.11 0.71 0.16 1.04 0.16 0.34 0 0.61-0.06 0.79-0.17s0.27-0.27 0.27-0.48c0-0.19-0.07-0.34-0.19-0.44s-0.36-0.19-0.73-0.27l-0.6-0.13c-0.61-0.13-1.05-0.34-1.33-0.62s-0.42-0.66-0.42-1.14c0-0.59 0.2-1.05 0.58-1.37 0.39-0.33 0.95-0.49 1.68-0.49 0.33 0 0.67 0.03 1.02 0.08s0.72 0.12 1.09 0.22m5.44 4.72h-2.44l-0.38 1.09h-1.57l2.24-6h1.85l2.24 6h-1.56l-0.38-1.09m-2.05-1.11h1.65l-0.82-2.39-0.83 2.39" transform="matrix(.9875 0 0 .93335 -323.9 -356.81)"/></svg>