<svg xmlns="http://www.w3.org/2000/svg" width="599.1303" height="81.1942"><path d="M-57.35037 138.98527v10.6791H44.101058v-10.6791M118.85474 138.98527v10.6791h261.63789v-10.6791M380.49263 149.66437H530v-10.6791" fill="none" stroke="#000" stroke-width="1.7798" transform="translate(63.2403 -98.2317)"/><text style="line-height:0%;-inkscape-font-specification:'Source Sans Pro';text-align:start" x="-43.1116" y="169.2427" font-weight="400" font-size="21.3582" font-family="Source Sans Pro" letter-spacing="0" word-spacing="0" stroke-width="1.7798" transform="translate(63.2403 -98.2317)"><tspan x="-43.1116" y="169.2427" style="line-height:1.25" font-size="24.9179">scheme</tspan></text><text style="line-height:0%;-inkscape-font-specification:'Source Sans Pro';text-align:start" x="230.9853" y="169.2427" font-weight="400" font-size="21.3582" font-family="Source Sans Pro" letter-spacing="0" word-spacing="0" stroke-width="1.7798" transform="translate(63.2403 -98.2317)"><tspan x="230.9853" y="169.2427" style="line-height:1.25" font-size="24.9179">server</tspan></text><text style="line-height:0%;-inkscape-font-specification:'Source Sans Pro';text-align:start" x="437.4478" y="169.2427" font-weight="400" font-size="21.3582" font-family="Source Sans Pro" letter-spacing="0" word-spacing="0" stroke-width="1.7798" transform="translate(63.2403 -98.2317)"><tspan x="437.4478" y="169.2427" style="line-height:1.25" font-size="24.9179">path</tspan></text><g style="line-height:125%;-inkscape-font-specification:'Source Code Pro';text-align:start" font-weight="400" font-size="24" font-family="Source Code Pro" letter-spacing="0" word-spacing="0"><path d="M110.232 123.27418h1.968v4.656l-.096 2.76c.624-.65599 1.28799-1.19999 1.992-1.632.70399-.43199 1.51199-.64799 2.424-.648 1.39199.00001 2.40799.40001 3.048 1.2.65599.78401.98399 1.95201.984 3.504v7.248h-1.968v-6.984c-.00001-1.10399-.20801-1.91999-.624-2.448-.41601-.54399-1.10401-.81599-2.064-.816-.35201.00001-.68001.048-.984.144-.28801.08-.57601.20801-.864.384-.28801.17601-.58401.40001-.888.672-.304.25601-.624.56001-.96.912v8.136h-1.968v-17.088M127.33463 130.30618h-3.288v-1.488l3.36-.12.264-3.264h1.63199v3.264h5.736v1.608h-5.736v5.544c0 .52801.048.99201.144 1.392.096.38401.256.71201.48.984.224.272.528.48.912.624.384.128.856.192 1.416.192.55999 0 1.06399-.048 1.512-.144.44799-.096.87999-.224 1.296-.384l.43201 1.44c-.52802.192-1.11202.352-1.75201.48-.64001.144-1.28001.216-1.92.216-.848 0-1.56-.112-2.136-.336-.576-.24-1.04-.568-1.392-.984-.336-.432-.584-.944-.744-1.536-.144-.59199-.216-1.24799-.21599-1.968v-5.52M141.72525 130.30618h-3.288v-1.488l3.36-.12.264-3.264h1.632v3.264h5.736v1.608h-5.736v5.544c-.00001.52801.048.99201.144 1.392.096.38401.25599.71201.48.984.22399.272.52799.48.912.624.38399.128.85599.192 1.416.192.55999 0 1.06399-.048 1.512-.144.44799-.096.87999-.224 1.296-.384l.432 1.44c-.52801.192-1.11201.352-1.752.48-.64001.144-1.28001.216-1.92.216-.84801 0-1.56001-.112-2.136-.336-.57601-.24-1.04001-.568-1.392-.984-.33601-.432-.58401-.944-.744-1.536-.14401-.59199-.216-1.24799-.216-1.968v-5.52M155.37187 141.34618v3.936h-1.968v-16.584h1.632l.168 1.488h.072c.54399-.51199 1.16799-.93599 1.87199-1.272.72-.33599 1.44-.50399 2.16-.504.784.00001 1.472.14401 2.064.432.60799.27201 1.11199.67201 1.512 1.2.41599.51201.72799 1.13601.936 1.872.20799.72001.31199 1.53601.312 2.448-.00001.99201-.14401 1.88001-.432 2.664-.28801.76801-.68001 1.424-1.176 1.968-.48001.544-1.04001.96-1.68 1.248-.64.272-1.312.408-2.016.408-.544 0-1.136-.128-1.776-.384-.624-.272-1.2-.648-1.728-1.128l.048 2.208m0-3.72c.56.496 1.12.848 1.68 1.056.56.208 1.04.312 1.44.312 1.056 0 1.92-.408 2.592-1.224.67199-.81599 1.00799-1.95199 1.008-3.408-.00001-.63999-.064-1.22399-.192-1.752-.12801-.52799-.32801-.97599-.6-1.344-.256-.38399-.592-.67999-1.008-.888-.416-.20799-.912-.31199-1.488-.312-.512.00001-1.064.14401-1.656.432-.576.27201-1.168.71201-1.776 1.32v5.808M170.8185 130.04218c-.00001-.60799.18399-1.09599.552-1.464.38399-.38399.84799-.57599 1.392-.576.54399.00001.99999.19201 1.368.576.38399.36801.57599.85601.576 1.464-.00001.60801-.19201 1.09601-.576 1.464-.36801.36801-.82401.55201-1.368.552-.54401.00001-1.00801-.18399-1.392-.552-.36801-.36799-.55201-.85599-.552-1.464m0 8.592c-.00001-.608.18399-1.09599.552-1.464.38399-.38399.84799-.57599 1.392-.576.54399.00001.99999.19201 1.368.576.38399.36801.57599.856.576 1.464-.00001.608-.19201 1.096-.576 1.464-.36801.368-.82401.552-1.368.552-.54401 0-1.00801-.184-1.392-.552-.36801-.368-.55201-.856-.552-1.464M184.10512 144.20218h-1.776l7.872-20.88h1.776l-7.872 20.88M198.49575 144.20218h-1.776l7.872-20.88h1.776l-7.872 20.88M208.92637 128.69818h2.016l1.416 6.744c.112.56001.216 1.10401.312 1.632.096.52801.184 1.064.264 1.608h.096c.112-.544.224-1.07999.336-1.608.112-.54399.232-1.08799.36-1.632l1.416-6.048h1.68l1.44 6.048c.128.56001.248 1.10401.36 1.632.11199.52801.23199 1.064.36 1.608h.096c.11199-.544.20799-1.07999.288-1.608.096-.52799.19199-1.07199.288-1.632l1.41601-6.744h1.87199l-2.544 11.664h-2.376l-1.39199-5.904c-.11201-.55999-.21601-1.11199-.31201-1.656-.096-.55999-.208-1.13599-.336-1.728h-.096c-.096.51201-.192 1.04001-.288 1.584-.096.54401-.216 1.15201-.36 1.824l-1.344 5.88h-2.352l-2.616-11.664M223.317 128.69818h2.016l1.416 6.744c.112.56001.216 1.10401.312 1.632.096.52801.184 1.064.264 1.608h.096c.112-.544.224-1.07999.336-1.608.112-.54399.232-1.08799.36-1.632l1.416-6.048h1.68l1.44 6.048c.12799.56001.24799 1.10401.36 1.632.11199.52801.23199 1.064.36 1.608h.096c.11199-.544.20799-1.07999.288-1.608.096-.52799.19199-1.07199.288-1.632l1.416-6.744h1.872l-2.544 11.664h-2.376l-1.392-5.904c-.11201-.55999-.21601-1.11199-.312-1.656-.096-.55999-.20801-1.13599-.336-1.728h-.096c-.096.51201-.19201 1.04001-.288 1.584-.096.54401-.21601 1.15201-.36 1.824l-1.344 5.88h-2.352l-2.616-11.664M237.70762 128.69818h2.016l1.416 6.744c.112.56001.216 1.10401.312 1.632.096.52801.184 1.064.264 1.608h.096c.112-.544.224-1.07999.336-1.608.112-.54399.232-1.08799.36-1.632l1.416-6.048h1.68l1.44 6.048c.128.56001.248 1.10401.36 1.632.11199.52801.23199 1.064.36 1.608h.096c.11199-.544.20799-1.07999.288-1.608.096-.52799.19199-1.07199.288-1.632l1.41601-6.744h1.87199l-2.544 11.664h-2.376l-1.39199-5.904c-.11201-.55999-.21601-1.11199-.31201-1.656-.096-.55999-.208-1.13599-.336-1.728h-.096c-.096.51201-.192 1.04001-.288 1.584-.096.54401-.216 1.15201-.36 1.824l-1.344 5.88h-2.352l-2.616-11.664M257.16225 138.63418c-.00001-.608.18399-1.09599.552-1.464.38399-.38399.84799-.57599 1.392-.576.54399.00001.99999.19201 1.368.576.38399.36801.57599.856.576 1.464-.00001.608-.19201 1.096-.576 1.464-.36801.368-.82401.552-1.368.552-.54401 0-1.00801-.184-1.392-.552-.36801-.368-.55201-.856-.552-1.464M266.48887 128.69818h2.01601l1.416 6.744c.11199.56001.21599 1.10401.31199 1.632.096.52801.184 1.064.264 1.608h.096c.112-.544.224-1.07999.336-1.608.112-.54399.232-1.08799.36001-1.632l1.416-6.048h1.68l1.44 6.048c.12799.56001.24799 1.10401.35999 1.632.112.52801.23199 1.064.36 1.608h.096c.11199-.544.20799-1.07999.288-1.608.096-.52799.19199-1.07199.28801-1.632l1.416-6.744h1.87199l-2.544 11.664h-2.376l-1.39199-5.904c-.11201-.55999-.21601-1.11199-.31201-1.656-.096-.55999-.208-1.13599-.336-1.728h-.096c-.096.51201-.192 1.04001-.288 1.584-.096.54401-.216 1.15201-.35999 1.824l-1.344 5.88h-2.35201l-2.616-11.664M283.0635 137.19418c.512.48001 1.12.904 1.824 1.272.72.368 1.57599.552 2.568.552.52799 0 1.01599-.064 1.464-.192.44799-.144.83199-.336 1.152-.576.33599-.24.59199-.52799.768-.864.19199-.35199.28799-.74399.288-1.176-.00001-.44799-.10401-.85599-.312-1.224-.19201-.38399-.51201-.71199-.96-.984-.44801-.27199-1.02401-.47999-1.728-.624-.70401-.14399-1.56001-.21599-2.568-.216v-1.512c.91199.00001 1.67999-.072 2.304-.216.63999-.14399 1.15999-.34399 1.56-.6.39999-.25599.68799-.55999.864-.912.19199-.35199.28799-.72799.288-1.128-.00001-.75199-.28801-1.34398-.864-1.776-.56001-.43198-1.31201-.64798-2.256-.648-.72001.00002-1.40001.14402-2.04.432-.64.28802-1.216.66402-1.728 1.128l-1.056-1.248c.64-.55998 1.368-1.01598 2.184-1.368.816-.36798 1.71999-.55198 2.712-.552.71999.00002 1.38399.088 1.992.264.62399.17602 1.15999.43202 1.608.768.46399.32002.82399.72002 1.08 1.2.25599.48002.38399 1.03201.384 1.656-.00001.92801-.30401 1.68801-.912 2.28-.60801.59201-1.39201 1.04801-2.352 1.368v.096c.51199.11201.99199.28001 1.44.504.46399.20801.87199.48001 1.224.816.35199.32001.62399.69601.816 1.128.20799.43201.31199.91201.312 1.44-.00001.67201-.14401 1.28001-.432 1.824-.28801.544-.68801 1.008-1.2 1.392-.49601.368-1.08001.656-1.752.864-.67201.192-1.39201.288-2.16.288-1.32801 0-2.44-.216-3.336-.648-.896-.448-1.624-.952-2.184-1.512l1.008-1.296M300.33412 138.63418c0-.608.184-1.09599.552-1.464.384-.38399.848-.57599 1.392-.576.544.00001 1 .19201 1.368.576.384.36801.576.856.576 1.464 0 .608-.192 1.096-.576 1.464-.368.368-.824.552-1.368.552-.544 0-1.008-.184-1.392-.552-.368-.368-.552-.856-.552-1.464M310.90875 134.55418c0-.97599.152-1.83999.456-2.592.32-.76799.744-1.41599 1.272-1.944.528-.52799 1.136-.92799 1.824-1.2.70399-.27199 1.43999-.40799 2.208-.408.76799.00001 1.49599.13601 2.184.408.70399.27201 1.31999.67201 1.848 1.2.52799.52801.94399 1.17601 1.248 1.944.31999.75201.47999 1.61601.48 2.592-.00001.96001-.16001 1.82401-.48 2.592-.30401.75201-.72001 1.392-1.248 1.92-.52801.512-1.14401.904-1.848 1.176-.68801.272-1.41601.408-2.184.408-.76801 0-1.50401-.136-2.208-.408-.688-.272-1.296-.664-1.824-1.176-.528-.528-.952-1.16799-1.272-1.92-.304-.76799-.456-1.63199-.456-2.592m2.04 0c0 .67201.088 1.28001.264 1.824.176.54401.424 1.01601.744 1.416.336.384.72799.688 1.176.912.46399.208.97599.312 1.536.312.55999 0 1.06399-.104 1.512-.312.46399-.224.85599-.528 1.176-.912.33599-.39999.59199-.87199.768-1.416.17599-.54399.26399-1.15199.264-1.824-.00001-.67199-.088-1.27999-.264-1.824-.17601-.55999-.43201-1.03999-.768-1.44-.32001-.39999-.71201-.70399-1.176-.912-.44801-.22399-.95201-.33599-1.512-.336-.56001.00001-1.07201.11201-1.536.336-.44801.20801-.84.51201-1.176.912-.32.40001-.568.88001-.744 1.44-.176.54401-.264 1.15201-.264 1.824M327.36338 128.69818h1.632l.16799 2.76h.072c.608-.94399 1.352-1.68799 2.232-2.232.896-.54399 1.888-.81599 2.976-.816.43199.00001.83199.04 1.2.12.36799.064.73599.18401 1.104.36l-.45599 1.704c-.41602-.14399-.76802-.24799-1.05601-.312-.27201-.064-.64001-.096-1.104-.096-.88.00001-1.728.25601-2.544.768-.8.49601-1.552 1.35201-2.256 2.568v6.84h-1.96799v-11.664M341.682 142.30618c0 .608.32 1.104.96 1.488.65599.384 1.60799.576 2.856.576.67199 0 1.27999-.072 1.824-.216.54399-.128 1.00799-.304 1.392-.528.38399-.224.67199-.48.864-.768.20799-.288.31199-.584.312-.888-.00001-.56-.22401-.936-.672-1.128-.43201-.192-1.09601-.288-1.992-.288h-2.28c-.33601 0-.65601-.016-.96-.048-.28801-.016-.56001-.064-.816-.144-.56.304-.952.616-1.176.936-.208.336-.312.672-.312 1.008m-1.704.192c0-.464.16-.92.48-1.368.336-.448.816-.856 1.44-1.224v-.096c-.32-.176-.6-.416-.84-.72-.24-.304-.36-.704-.36-1.2 0-.36799.12-.74399.36-1.128.24-.39999.584-.75199 1.032-1.056v-.096c-.4-.30399-.744-.70399-1.032-1.2-.272-.51199-.408-1.11999-.408-1.824 0-.63999.12-1.21599.36-1.728.256-.51199.592-.94399 1.008-1.296.416-.36799.896-.64799 1.44-.84.55999-.20799 1.15199-.31199 1.776-.312.63999.00001 1.21599.096 1.728.288h4.824v1.512h-3.12c.27199.28801.51999.64001.744 1.056.22399.41601.33599.88001.336 1.392-.00001.62401-.12001 1.18401-.36 1.68-.22401.49601-.54401.92001-.96 1.272-.40001.33601-.88001.60001-1.44.792-.54401.17601-1.12801.26401-1.752.264-.30401.00001-.63201-.032-.984-.096-.33601-.08-.66401-.19199-.984-.336-.608.38401-.912.83201-.912 1.344 0 .464.208.808.624 1.032.43199.208 1.03199.312 1.8.312h2.616c1.50399 0 2.61599.208 3.336.624.73599.416 1.10399 1.12 1.104 2.112-.00001.544-.15201 1.064-.456 1.56-.30401.496-.73601.928-1.296 1.296-.56001.368-1.24001.664-2.04.888-.80001.224-1.69601.336-2.688.336-1.71201 0-3.04-.28-3.984-.84-.928-.56-1.392-1.36-1.392-2.4m5.256-7.152c.75199.00001 1.38399-.24799 1.896-.744.52799-.49599.79199-1.16799.792-2.016-.00001-.39999-.072-.76799-.216-1.104-.14401-.33599-.33601-.62399-.576-.864-.24001-.23999-.52801-.42399-.864-.552-.32001-.14399-.66401-.21599-1.032-.216-.36801.00001-.72001.072-1.056.216-.32001.12801-.60001.31201-.84.552-.24.24001-.432.52801-.576.864-.144.33601-.216.70401-.216 1.104 0 .84801.264 1.52001.792 2.016.52799.49601 1.15999.74401 1.896.744M356.79262 144.20218h-1.776l7.872-20.88h1.776l-7.872 20.88M369.26325 123.27418h1.968v4.656l-.096 2.76c.624-.65599 1.28799-1.19999 1.992-1.632.70399-.43199 1.51199-.64799 2.424-.648 1.39199.00001 2.40799.40001 3.048 1.2.65599.78401.98399 1.95201.984 3.504v7.248h-1.968v-6.984c-.00001-1.10399-.20801-1.91999-.624-2.448-.41601-.54399-1.10401-.81599-2.064-.816-.35201.00001-.68001.048-.984.144-.28801.08-.57601.20801-.864.384-.28801.17601-.58401.40001-.888.672-.304.25601-.624.56001-.96.912v8.136h-1.968v-17.088M386.36588 130.30618h-3.28801v-1.488l3.36001-.12.26399-3.264h1.632v3.264h5.73601v1.608h-5.73601v5.544c0 .52801.048.99201.144 1.392.096.38401.256.71201.48.984.224.272.528.48.912.624.384.128.856.192 1.416.192.55999 0 1.06399-.048 1.512-.144.44799-.096.87999-.224 1.29601-.384l.43199 1.44c-.52801.192-1.11201.352-1.752.48-.64001.144-1.28001.216-1.91999.216-.84801 0-1.56001-.112-2.13601-.336-.576-.24-1.04-.568-1.392-.984-.336-.432-.584-.944-.74399-1.536-.14401-.59199-.21601-1.24799-.216-1.968v-5.52M397.2525 128.69818h1.536l.168 1.536h.072c.288-.54399.624-.98399 1.008-1.32.4-.33599.93599-.50399 1.608-.504 1.18399.00001 1.91999.67201 2.208 2.016.35199-.60799.73599-1.09599 1.152-1.464.41599-.36799.95199-.55199 1.608-.552.81599.00001 1.43999.31201 1.872.936.44799.60801.67199 1.49601.672 2.664v8.352h-1.896v-8.184c-.00001-1.37599-.42401-2.06399-1.272-2.064-.41601.00001-.77601.15201-1.08.456-.30401.28801-.60801.73601-.912 1.344v8.448h-1.584v-8.184c-.00001-1.37599-.44001-2.06399-1.32-2.064-.416.00001-.768.15201-1.056.456-.288.28801-.584.73601-.888 1.344v8.448h-1.896v-11.664M412.14713 123.27418h5.952v13.32c-.00001.86401.19999 1.488.59999 1.872.416.368.976.552 1.68.552.63999 0 1.37599-.184 2.20801-.552l.50399 1.488c-.52801.192-1.02401.352-1.488.48-.46401.144-1.01601.216-1.65599.216-1.24801 0-2.20001-.352-2.85601-1.056-.64-.704-.96-1.75199-.96-3.144v-11.568h-3.98399v-1.608M428.74575 144.20218h-1.776l7.872-20.88h1.776l-7.872 20.88" transform="matrix(1.77985 0 0 1.77985 -186.3338 -214.4095)"/></g></svg>