<svg xmlns="http://www.w3.org/2000/svg" width="592.2013" height="218.0755" version="1.0"><defs><marker orient="auto" refY="0" refX="0" id="b" overflow="visible"><path d="M 8.7185878,4.0337352 -2.2072895,0.01601326 8.7185884,-4.0017078 c -1.7454984,2.3720609 -1.7354408,5.6174519 -6e-7,8.035443 z" transform="scale(-.6)" font-size="12" fill="#090" fill-rule="evenodd" stroke-width=".625" stroke-linejoin="round"/></marker><marker orient="auto" refY="0" refX="0" id="a" overflow="visible"><path d="M 8.7185878,4.0337352 -2.2072895,0.01601326 8.7185884,-4.0017078 c -1.7454984,2.3720609 -1.7354408,5.6174519 -6e-7,8.035443 z" transform="scale(.6)" font-size="12" fill="#090" fill-rule="evenodd" stroke-width=".625" stroke-linejoin="round"/></marker></defs><g transform="translate(8.4072 -13.8902)"><rect style="-inkscape-font-specification:'Sans Bold'" width="349.7114" height="118.9019" x="127.255" y="65.7123" font-weight="700" fill="#ddd" stroke="#000" stroke-width="5.5954"/><g style="-inkscape-font-specification:'FreeSans Bold'" font-weight="700" font-size="24" font-family="FreeSans"><path d="M110.52 94.826183l0 4.536 9.48 0 0 2.999997-13.08 0 0-17.495997 12.648 0 0 3-9.048 0 0 3.96 8.376 0 0 3-8.376 0M125.8575 84.866183l0 17.495997-3.36 0 0-17.495997 3.36 0M134.36625 89.186183c.55999.000013 1.10399.06401 1.632.192.52799.128012 1.06399.360012 1.608.696.55999.336012 1.03999.768011 1.44 1.296.41599.51201.75199 1.200009 1.008 2.064.25599.848008.38399 1.824007.384 2.928-.00001.192005-.008.384005-.024.576l-8.688 0c.016.496005.056.928004.12 1.296.08.352003.208.704003.384 1.056.19199.336002.46399.600002.816.791997.36799.176.82399.264 1.368.264 1.27999 0 2.13599-.543995 2.568-1.631997l3.312 0c-.36801 1.280002-1.09601 2.303997-2.184 3.071997-1.08801.752-2.36001 1.128-3.816 1.128-1.84001 0-3.288-.592-4.344-1.776-1.056-1.199995-1.584-2.839993-1.584-4.919997 0-2.175992.536-3.88799 1.608-5.136 1.072-1.263988 2.53599-1.895987 4.392-1.896m2.568 5.52c-.08-.943992-.34401-1.671991-.792-2.184-.43201-.51199-1.04001-.76799-1.824-.768-1.47201.00001-2.32.984009-2.544 2.952l5.16 0M142.98188 89.402183l3.33599 0 0 1.608c.56-.655988 1.104-1.119988 1.632-1.392.544-.287987 1.184-.431987 1.92001-.432 1.69598.000013 2.87198.640012 3.52799 1.92.95999-1.279988 2.22399-1.919987 3.79201-1.92 1.29598.000013 2.30398.352012 3.024 1.056.73598.704011 1.10398 1.68801 1.104 2.952l0 9.167997-3.36 0 0-8.639997c-.00002-.511991-.16802-.919991-.504-1.224-.32002-.30399-.76002-.45599-1.32001-.456-.72001.00001-1.28801.22401-1.70399.672-.40002.448009-.60002 1.072008-.60001 1.872l0 7.775997-3.35999 0 0-8.639997c-.00001-.511991-.16801-.919991-.504-1.224-.32001-.30399-.76001-.45599-1.32001-.456-.72.00001-1.288.22401-1.70399.672-.40001.448009-.60001 1.072008-.60001 1.872l0 7.775997-3.35999 0 0-12.959997M169.85063 89.186183c.55999.000013 1.10399.06401 1.632.192.52799.128012 1.06399.360012 1.60799.696.55999.336012 1.03999.768011 1.44 1.296.41599.51201.75199 1.200009 1.008 2.064.25599.848008.38399 1.824007.38401 2.928-.00002.192005-.008.384005-.024.576l-8.68801 0c.016.496005.056.928004.12 1.296.08.352003.208.704003.38401 1.056.19199.336002.46399.600002.81599.791997.368.176.824.264 1.36801.264 1.27999 0 2.13599-.543995 2.56799-1.631997l3.31201 0c-.36802 1.280002-1.09602 2.303997-2.184 3.071997-1.08801.752-2.36001 1.128-3.816 1.128-1.84001 0-3.28801-.592-4.344-1.776-1.05601-1.199995-1.58401-2.839993-1.584-4.919997-.00001-2.175992.53599-3.88799 1.608-5.136 1.07199-1.263988 2.53599-1.895987 4.392-1.896m2.56799 5.52c-.08-.943992-.344-1.671991-.792-2.184-.432-.51199-1.04-.76799-1.82399-.768-1.47201.00001-2.32001.984009-2.54401 2.952l5.16 0M178.46625 89.402183l3.36 0 0 1.872c.92799-1.391988 2.22399-2.087987 3.888-2.088 1.37599.000013 2.43999.392012 3.192 1.176.76799.784011 1.15199 1.88801 1.152 3.312l0 8.687997-3.36 0 0-7.991997c-.00001-1.551991-.72001-2.32799-2.16-2.328-.81601.00001-1.47201.23201-1.968.696-.49601.464009-.744 1.080008-.744 1.848l0 7.775997-3.36 0 0-12.959997M199.017 89.666183l0 2.232-1.872 0 0 7.056c-.00001.576002.072.960002.216 1.151997.14399.176.43999.264.888.264.17599 0 .43199-.024.768-.072l0 2.352c-.54401.176-1.19201.264-1.944.264-2.192 0-3.288-1.016-3.288-3.047997l0-7.968-1.656 0 0-2.232 1.656 0 0-3.48 3.36 0 0 3.48 1.872 0M219.23063 90.794183c-.44802-2.095987-1.69602-3.143986-3.744-3.144-1.42401.000014-2.53601.544014-3.33601 1.632-.8 1.088012-1.2 2.60001-1.19999 4.536-.00001 1.904006.38399 3.392005 1.15199 4.464.784 1.072003 1.872 1.608002 3.264 1.608 1.11999.000002 2.01599-.303998 2.688-.912.67199-.607996 1.06399-1.471996 1.17601-2.592l3.50399 0c-.11201 2.000004-.84001 3.592002-2.184 4.775997-1.34401 1.168-3.10401 1.752-5.28 1.752-2.432 0-4.36-.816-5.78399-2.448-1.42401-1.647994-2.13601-3.879992-2.136-6.695997-.00001-2.831989.71999-5.071987 2.16-6.72 1.43999-1.647983 3.39199-2.471983 5.85599-2.472 2.06399.000017 3.75199.552017 5.064 1.656 1.32799 1.104015 2.07199 2.624013 2.232 4.56l-3.43199 0M231.0315 89.186183c2.03199.000013 3.60799.616012 4.728 1.848 1.13599 1.21601 1.70399 2.920008 1.704 5.112-.00001 2.080004-.57601 3.728002-1.728 4.943997-1.15201 1.216-2.71201 1.824-4.68 1.824-2.00001 0-3.568-.608-4.704-1.824-1.136-1.231995-1.704-2.911993-1.704-5.039997 0-2.127992.568-3.79999 1.704-5.016 1.136-1.231988 2.69599-1.847987 4.68-1.848m.024 2.712c-.91201.00001-1.64801.38401-2.208 1.152-.56.768008-.84 1.768007-.84 3 0 1.232005.28 2.232004.84 3 .55999.768002 1.29599 1.151997 2.208 1.151997.89599 0 1.62399-.375995 2.184-1.127997.57599-.767996.86399-1.759995.864-2.976-.00001-1.279993-.28001-2.295992-.84-3.048-.54401-.76799-1.28001-1.15199-2.208-1.152M239.96625 89.402183l3.36 0 0 1.872c.92799-1.391988 2.22399-2.087987 3.888-2.088 1.37599.000013 2.43999.392012 3.192 1.176.76799.784011 1.15199 1.88801 1.152 3.312l0 8.687997-3.36 0 0-7.991997c-.00001-1.551991-.72001-2.32799-2.16-2.328-.81601.00001-1.47201.23201-1.968.696-.49601.464009-.744 1.080008-.744 1.848l0 7.775997-3.36 0 0-12.959997M260.517 89.666183l0 2.232-1.872 0 0 7.056c-.00001.576002.072.960002.216 1.151997.14399.176.43999.264.888.264.17599 0 .43199-.024.768-.072l0 2.352c-.54401.176-1.19201.264-1.944.264-2.192 0-3.288-1.016-3.288-3.047997l0-7.968-1.656 0 0-2.232 1.656 0 0-3.48 3.36 0 0 3.48 1.872 0M268.19437 89.186183c.56.000013 1.104.06401 1.632.192.528.128012 1.064.360012 1.608.696.55999.336012 1.03999.768011 1.44 1.296.41599.51201.75199 1.200009 1.00801 2.064.25598.848008.38398 1.824007.38399 2.928-.00001.192005-.008.384005-.024.576l-8.688 0c.016.496005.056.928004.12 1.296.08.352003.208.704003.38401 1.056.19199.336002.46399.600002.81599.791997.368.176.824.264 1.368.264 1.28 0 2.136-.543995 2.56801-1.631997l3.31199 0c-.36801 1.280002-1.09601 2.303997-2.18399 3.071997-1.08801.752-2.36001 1.128-3.81601 1.128-1.84 0-3.288-.592-4.344-1.776-1.056-1.199995-1.584-2.839993-1.584-4.919997 0-2.175992.536-3.88799 1.608-5.136 1.072-1.263988 2.536-1.895987 4.392-1.896m2.56801 5.52c-.08-.943992-.34401-1.671991-.79201-2.184-.432-.51199-1.04-.76799-1.824-.768-1.472.00001-2.32.984009-2.544 2.952l5.16001 0M276.81 89.402183l3.36 0 0 1.872c.92799-1.391988 2.22399-2.087987 3.888-2.088 1.37599.000013 2.43999.392012 3.192 1.176.76799.784011 1.15199 1.88801 1.152 3.312l0 8.687997-3.36 0 0-7.991997c-.00001-1.551991-.72001-2.32799-2.16-2.328-.81601.00001-1.47201.23201-1.968.696-.49601.464009-.744 1.080008-.744 1.848l0 7.775997-3.36 0 0-12.959997M297.36075 89.666183l0 2.232-1.872 0 0 7.056c-.00001.576002.072.960002.216 1.151997.14399.176.43999.264.888.264.17599 0 .43199-.024.768-.072l0 2.352c-.54401.176-1.19201.264-1.944.264-2.192 0-3.288-1.016-3.288-3.047997l0-7.968-1.656 0 0-2.232 1.656 0 0-3.48 3.36 0 0 3.48 1.872 0M302.08612 98.594183c.112.544003.336.960002.67201 1.248.35199.287997 1.00799.431997 1.968.431997.78399 0 1.39199-.112 1.82399-.335997.448-.223998.672-.535997.67201-.936-.00001-.255997-.088-.463997-.26401-.624-.16-.159996-.448-.303996-.86399-.432l-4.00801-1.248c-.016.000005-.112-.02399-.28799-.072-.17601-.06399-.30401-.111995-.384-.144-.064-.03199-.19201-.07999-.38401-.144-.192-.07999-.344-.159994-.456-.24-.096-.07999-.224-.175994-.38399-.288-.16001-.127994-.28801-.263994-.384-.408-.08-.143993-.16801-.303993-.26401-.48-.096-.191993-.168-.407993-.216-.648-.048-.239992-.072-.495992-.072-.768 0-1.32799.472-2.375989 1.416-3.144.96-.783988 2.264-1.175987 3.91201-1.176 1.74399.000013 3.11199.392012 4.104 1.176.99198.768011 1.50398 1.84001 1.536 3.216l-3.24001 0c-.016-1.16799-.824-1.75199-2.42399-1.752-.59201.00001-1.06401.11201-1.416.336-.35201.20801-.52801.496009-.528.864-.00001.256009.08.456008.24.6.15999.128008.47199.264008.93599.408l4.248 1.224c1.69599.496006 2.54399 1.584005 2.54401 3.264-.00002.496003-.088.984002-.264 1.464-.17602.463997-.46402.927997-.86401 1.391997-.38401.464-.96801.832-1.75199 1.104-.78401.288-1.71201.432-2.78401.432-3.984 0-6.024-1.44-6.11999-4.319997l3.28799 0" transform="matrix(1.39885 0 0 1.39885 1.359 -7.5343)"/></g><rect width="411.3333" height="174.4696" x="93.61" y="38.1215" fill="none" stroke="#090" stroke-width="1.3988" stroke-dasharray="1.3988455,2.79769101"/><text style="-inkscape-font-specification:'Sans Bold'" x="92.2839" y="226.5796" font-weight="700" font-size="16.7861" font-family="FreeSans"><tspan x="92.2839" y="226.5796">Next contents can start here.</tspan></text><path d="M149.63656 104.88001l307.74602 0M149.63656 99.284631l0 11.190769M457.38258 99.284631l0 11.190769" fill="none" stroke="#090" stroke-width="1.3988"/><g stroke="#090" fill="none"><path d="M330 103.36218l0-18.999997M326 84.362183l8 0M326 103.36218l8 0" transform="matrix(1.39885 0 0 1.39885 1.359 -7.5343)"/></g><rect width="307.746" height="26.5781" x="149.6366" y="110.4754" fill="none" stroke="#090" stroke-width="1.3988" stroke-dasharray="1.3988455,2.79769101"/><path d="M429.40567 180.41767l0-41.96537M419.61375 211.19226l0-22.38152" fill="none" stroke="#090" stroke-width="1.3988" marker-start="url(#a)" marker-end="url(#b)"/><text style="-inkscape-font-specification:FreeSans;text-align:end" x="83.8034" y="100.6835" font-weight="400" font-size="16.7861" font-family="FreeSans" text-anchor="end" fill="#090"><tspan x="83.8034" y="100.6835">Background</tspan></text><text style="-inkscape-font-specification:FreeSans;text-align:end" x="79.7926" y="177.62" font-weight="400" font-size="16.7861" font-family="FreeSans" text-anchor="end" fill="#090"><tspan x="79.7926" y="177.62">Border</tspan></text><text style="-inkscape-font-specification:FreeSans" x="518.9318" y="86.695" font-weight="400" font-size="16.7861" font-family="FreeSans" fill="#090"><tspan x="518.9318" y="86.695">Padding</tspan></text><text style="-inkscape-font-specification:FreeSans" x="518.9318" y="170.6258" font-weight="400" font-size="16.7861" font-family="FreeSans" fill="#090"><tspan x="518.9318" y="170.6258">Margin</tspan></text><text style="-inkscape-font-specification:FreeSans" x="233.4945" y="31.1273" font-weight="400" font-size="16.7861" font-family="FreeSans" fill="#090"><tspan x="233.4945" y="31.1273">Width</tspan></text><text style="-inkscape-font-specification:FreeSans" x="408.3502" y="31.1273" font-weight="400" font-size="16.7861" font-family="FreeSans" fill="#090"><tspan x="408.3502" y="31.1273">Height</tspan></text><path d="M458.70868 26.930748c78.33535 89.526112 4.26928 94.735412 4.26928 94.735412M276.85876 29.728439c22.38153 48.959594-2.72494 75.151571-2.72494 75.151571M429.40567 158.03614c76.9365 0 89.52611-69.942274 89.52611-69.942274M419.61375 198.60266c55.95382 6.99422 97.91918-26.57807 97.91918-26.57807" fill="none" stroke="#090" stroke-width=".6994"/><path d="M78.295443 86.695021C99.278126 72.706567 148.23772 79.700794 148.23772 79.700794M68.503525 165.03037C85.289672 151.04191 123.0585 152.44076 123.0585 152.44076" fill="none" stroke="#090" stroke-width="1.3988" marker-end="url(#b)"/></g></svg>