<svg xmlns="http://www.w3.org/2000/svg" xmlns:xlink="http://www.w3.org/1999/xlink" width="301.8526" height="313.4766"><defs><linearGradient xlink:href="#i" id="L" gradientUnits="userSpaceOnUse" gradientTransform="translate(-90 60)" x1="-47.5" y1="49.0207" x2="-62.75" y2="-22.5021"/><linearGradient id="a"><stop offset="0" stop-color="#59594a"/><stop offset="1" stop-color="#a2a491"/></linearGradient><linearGradient id="d"><stop offset="0" stop-color="#fffff3"/><stop offset="1" stop-color="#fffff3" stop-opacity="0"/></linearGradient><linearGradient id="e"><stop offset="0" stop-color="#fff"/><stop offset="1" stop-color="#fff" stop-opacity="0"/></linearGradient><linearGradient id="c"><stop offset="0" stop-color="#cccdbc"/><stop offset="1" stop-color="#b9baa4"/></linearGradient><linearGradient id="g"><stop offset="0" stop-opacity="0"/><stop offset=".5"/><stop offset="1" stop-opacity="0"/></linearGradient><linearGradient id="f"><stop offset="0"/><stop offset="1" stop-opacity="0"/></linearGradient><linearGradient id="h"><stop offset="0" stop-color="#f6f6f5"/><stop offset="1" stop-color="#d3d7cf"/></linearGradient><linearGradient id="i"><stop offset="0" stop-color="#888a85"/><stop offset="1" stop-color="#babdb6"/></linearGradient><linearGradient id="j"><stop offset="0" stop-color="#fff"/><stop offset="1" stop-color="#fff" stop-opacity="0"/></linearGradient><linearGradient id="l"><stop offset="0" stop-color="#fff"/><stop offset=".4753" stop-color="#fff"/><stop offset="1" stop-color="#fff" stop-opacity="0"/></linearGradient><linearGradient id="m"><stop offset="0" stop-opacity=".413"/><stop offset="1" stop-opacity="0"/></linearGradient><linearGradient id="n"><stop offset="0" stop-color="#fff"/><stop offset="1" stop-color="#fff" stop-opacity="0"/></linearGradient><linearGradient id="k"><stop offset="0"/><stop offset="1" stop-opacity="0"/></linearGradient><linearGradient id="r"><stop offset="0" stop-color="#555753"/><stop offset="1" stop-color="#fcaf3e"/></linearGradient><linearGradient id="s"><stop offset="0" stop-color="#fce94f"/><stop offset="1" stop-color="#fce94f" stop-opacity="0"/></linearGradient><linearGradient id="t"><stop offset="0" stop-color="#2e3436"/><stop offset="1" stop-color="#2e3436" stop-opacity="0"/></linearGradient><linearGradient id="q"><stop offset="0" stop-color="#888a85"/><stop offset="1" stop-color="#eeeeec"/></linearGradient><linearGradient id="u"><stop offset="0" stop-color="#fff"/><stop offset="1" stop-color="#fff" stop-opacity="0"/></linearGradient><linearGradient id="v"><stop offset="0" stop-color="#555753"/><stop offset="1" stop-color="#888a85"/></linearGradient><linearGradient id="x"><stop offset="0" stop-color="#fff"/><stop offset="1" stop-color="#fff" stop-opacity="0"/></linearGradient><linearGradient id="w"><stop offset="0" stop-color="#fff"/><stop offset="1" stop-color="#fff" stop-opacity="0"/></linearGradient><linearGradient id="o"><stop offset="0" stop-opacity="0"/><stop offset=".5"/><stop offset="1" stop-opacity="0"/></linearGradient><linearGradient id="p"><stop offset="0"/><stop offset="1" stop-opacity="0"/></linearGradient><linearGradient xlink:href="#a" id="z" gradientUnits="userSpaceOnUse" gradientTransform="scale(1.06831 .93606)" x1="24.983" y1="22.8281" x2="24.983" y2="8.3744"/><linearGradient xlink:href="#b" id="A" gradientUnits="userSpaceOnUse" gradientTransform="scale(.75046 1.33252)" x1="32.8276" y1="7.9206" x2="60.071" y2="7.8679"/><linearGradient xlink:href="#c" id="B" gradientUnits="userSpaceOnUse" x1="24.5884" y1="1.8991" x2="24.5884" y2="40.8589"/><linearGradient xlink:href="#d" id="C" gradientUnits="userSpaceOnUse" gradientTransform="scale(.80686 1.23937)" x1="23.643" y1="12.8185" x2="28.4433" y2="25.2324"/><linearGradient xlink:href="#e" id="D" gradientUnits="userSpaceOnUse" x1="25.8507" y1="37.625" x2="24.9963" y2="25.25"/><linearGradient xlink:href="#m" id="at" gradientUnits="userSpaceOnUse" gradientTransform="matrix(.9223 0 0 .91858 -92.4474 61.3257)" x1="-18.5886" y1="11.0529" x2="-28.7894" y2="14.0699"/><linearGradient xlink:href="#k" id="ar" gradientUnits="userSpaceOnUse" gradientTransform="translate(-180)" x1="58.2822" y1="70.7518" x2="61.1812" y2="67.7992"/><linearGradient xlink:href="#g" id="G" gradientUnits="userSpaceOnUse" x1="25.0581" y1="47.0277" x2="25.0581" y2="39.9994"/><linearGradient xlink:href="#i" id="ap" gradientUnits="userSpaceOnUse" gradientTransform="translate(-90 60)" x1="-47.5" y1="49.0207" x2="-62.75" y2="-22.5021"/><linearGradient xlink:href="#g" id="an" gradientUnits="userSpaceOnUse" x1="25.0581" y1="47.0277" x2="25.0581" y2="39.9994"/><linearGradient xlink:href="#g" id="J" gradientUnits="userSpaceOnUse" x1="25.0581" y1="47.0277" x2="25.0581" y2="39.9994"/><linearGradient xlink:href="#g" id="ak" gradientUnits="userSpaceOnUse" x1="25.0581" y1="47.0277" x2="25.0581" y2="39.9994"/><linearGradient id="b"><stop offset="0" stop-color="#cfcfc4"/><stop offset=".3267" stop-color="#cfcfc4"/><stop offset="1" stop-color="#cfcfc4" stop-opacity="0"/></linearGradient><linearGradient xlink:href="#e" id="ah" gradientUnits="userSpaceOnUse" x1="25.8507" y1="37.625" x2="24.9963" y2="25.25"/><linearGradient xlink:href="#k" id="N" gradientUnits="userSpaceOnUse" gradientTransform="translate(-180)" x1="58.2822" y1="70.7518" x2="61.1812" y2="67.7992"/><linearGradient xlink:href="#d" id="ag" gradientUnits="userSpaceOnUse" gradientTransform="scale(.80686 1.23937)" x1="23.643" y1="12.8185" x2="28.4433" y2="25.2324"/><linearGradient xlink:href="#m" id="P" gradientUnits="userSpaceOnUse" gradientTransform="matrix(.9223 0 0 .91858 -92.4474 61.3257)" x1="-18.5886" y1="11.0529" x2="-28.7894" y2="14.0699"/><linearGradient xlink:href="#n" id="Q" gradientUnits="userSpaceOnUse" x1="-26.7538" y1="11.5663" x2="-24.75" y2="9.6875"/><linearGradient xlink:href="#o" id="R" gradientUnits="userSpaceOnUse" gradientTransform="matrix(.06834 0 0 .07412 -6.2012 -1.175)" x1="302.8571" y1="366.6479" x2="302.8571" y2="609.5051"/><linearGradient xlink:href="#c" id="af" gradientUnits="userSpaceOnUse" x1="24.5884" y1="1.8991" x2="24.5884" y2="40.8589"/><linearGradient xlink:href="#b" id="ae" gradientUnits="userSpaceOnUse" gradientTransform="scale(.75046 1.33252)" x1="32.8276" y1="7.9206" x2="60.071" y2="7.8679"/><linearGradient xlink:href="#q" id="U" gradientUnits="userSpaceOnUse" x1="61.1812" y1="137.9764" x2="20.4207" y2="2.675"/><linearGradient xlink:href="#r" id="V" gradientUnits="userSpaceOnUse" gradientTransform="matrix(1.1142 0 0 1.16667 37.3688 -3.9167)" x1="-11.9865" y1="13.1226" x2="-11.9865" y2="29.7265"/><linearGradient xlink:href="#a" id="ad" gradientUnits="userSpaceOnUse" gradientTransform="scale(1.06831 .93606)" x1="24.983" y1="22.8281" x2="24.983" y2="8.3744"/><linearGradient xlink:href="#t" id="X" gradientUnits="userSpaceOnUse" gradientTransform="matrix(1.11765 0 0 1.5 -2.8235 -15.5)" x1="25.3553" y1="33.6546" x2="25.3553" y2="32.409"/><linearGradient xlink:href="#u" id="Y" gradientUnits="userSpaceOnUse" x1="40.9416" y1="37.6398" x2="35.4963" y2="32.1945"/><linearGradient xlink:href="#q" id="Z" gradientUnits="userSpaceOnUse" x1="42.9994" y1="36.8119" x2="40.6213" y2="34.4338"/><linearGradient xlink:href="#n" id="au" gradientUnits="userSpaceOnUse" x1="-26.7538" y1="11.5663" x2="-24.75" y2="9.6875"/><radialGradient xlink:href="#v" id="aa" gradientUnits="userSpaceOnUse" gradientTransform="matrix(.1875 -1.05343 .71808 .12781 7.8227 71.0304)" cx="39.4371" cy="34.3385" fx="39.4371" fy="34.3385" r="6"/><radialGradient xlink:href="#x" id="ac" gradientUnits="userSpaceOnUse" gradientTransform="matrix(.9409 -.20665 .10982 .50003 -1.5544 13.2196)" cx="20.2369" cy="25.0433" fx="20.2369" fy="25.0433" r="22"/><radialGradient xlink:href="#s" id="W" gradientUnits="userSpaceOnUse" gradientTransform="matrix(1 0 0 .95855 22.7158 2.576)" cx="-6.007" cy="32.837" fx="-6.007" fy="32.837" r="9.9063"/><radialGradient xlink:href="#p" id="T" gradientUnits="userSpaceOnUse" gradientTransform="matrix(-.01606 0 0 .07412 11.6816 -1.175)" cx="605.7143" cy="486.6479" fx="605.7143" fy="486.6479" r="117.1429"/><radialGradient xlink:href="#p" id="S" gradientUnits="userSpaceOnUse" gradientTransform="matrix(.10442 0 0 .07412 -27.9305 -1.175)" cx="605.7143" cy="486.6479" fx="605.7143" fy="486.6479" r="117.1429"/><radialGradient xlink:href="#l" id="O" gradientUnits="userSpaceOnUse" gradientTransform="matrix(.40734 -.27983 .75103 1.09325 -115.1848 51.5621)" cx="-26.3054" cy="10.108" fx="-26.3054" fy="10.108" r="7.0421"/><radialGradient xlink:href="#j" id="M" gradientUnits="userSpaceOnUse" gradientTransform="matrix(1.88603 0 0 1.17647 -3.5441 -4.2353)" cx="4" cy="5.3" fx="4" fy="5.3" r="17"/><radialGradient xlink:href="#f" id="ai" gradientUnits="userSpaceOnUse" gradientTransform="matrix(2.00378 0 0 1.4 27.9881 -17.4)" cx="4.993" cy="43.5" fx="4.993" fy="43.5" r="2.5"/><radialGradient xlink:href="#f" id="aj" gradientUnits="userSpaceOnUse" gradientTransform="matrix(2.00378 0 0 1.4 -20.0119 -104.4)" cx="4.993" cy="43.5" fx="4.993" fy="43.5" r="2.5"/><radialGradient xlink:href="#w" id="ab" gradientUnits="userSpaceOnUse" gradientTransform="matrix(1 0 0 .9356 0 2.3071)" cx="40.1795" cy="34.0804" fx="40.1795" fy="34.0804" r="4.125"/><radialGradient xlink:href="#f" id="al" gradientUnits="userSpaceOnUse" gradientTransform="matrix(2.00378 0 0 1.4 27.9881 -17.4)" cx="4.993" cy="43.5" fx="4.993" fy="43.5" r="2.5"/><radialGradient xlink:href="#f" id="am" gradientUnits="userSpaceOnUse" gradientTransform="matrix(2.00378 0 0 1.4 -20.0119 -104.4)" cx="4.993" cy="43.5" fx="4.993" fy="43.5" r="2.5"/><radialGradient xlink:href="#f" id="I" gradientUnits="userSpaceOnUse" gradientTransform="matrix(2.00378 0 0 1.4 -20.0119 -104.4)" cx="4.993" cy="43.5" fx="4.993" fy="43.5" r="2.5"/><radialGradient xlink:href="#h" id="ao" gradientUnits="userSpaceOnUse" gradientTransform="matrix(3.99575 0 0 1.93504 .6214 28.8326)" cx="-30.25" cy="35.3572" fx="-30.25" fy="35.3572" r="18"/><radialGradient xlink:href="#f" id="H" gradientUnits="userSpaceOnUse" gradientTransform="matrix(2.00378 0 0 1.4 27.9881 -17.4)" cx="4.993" cy="43.5" fx="4.993" fy="43.5" r="2.5"/><radialGradient xlink:href="#j" id="aq" gradientUnits="userSpaceOnUse" gradientTransform="matrix(1.88603 0 0 1.17647 -3.5441 -4.2353)" cx="4" cy="5.3" fx="4" fy="5.3" r="17"/><radialGradient xlink:href="#f" id="F" gradientUnits="userSpaceOnUse" gradientTransform="matrix(2.00378 0 0 1.4 -20.0119 -104.4)" cx="4.993" cy="43.5" fx="4.993" fy="43.5" r="2.5"/><radialGradient xlink:href="#l" id="as" gradientUnits="userSpaceOnUse" gradientTransform="matrix(.40734 -.27983 .75103 1.09325 -115.1848 51.5621)" cx="-26.3054" cy="10.108" fx="-26.3054" fy="10.108" r="7.0421"/><radialGradient xlink:href="#f" id="E" gradientUnits="userSpaceOnUse" gradientTransform="matrix(2.00378 0 0 1.4 27.9881 -17.4)" cx="4.993" cy="43.5" fx="4.993" fy="43.5" r="2.5"/><radialGradient xlink:href="#h" id="K" gradientUnits="userSpaceOnUse" gradientTransform="matrix(3.99575 0 0 1.93504 .6214 28.8326)" cx="-30.25" cy="35.3572" fx="-30.25" fy="35.3572" r="18"/></defs><g transform="translate(70.7596 -208.4654)"><use xlink:href="#y" transform="translate(39.5034 79.0069)" width="220" height="300"/><text style="line-height:0%;-inkscape-font-specification:'Source Code Pro';text-align:start" x="-29.2562" y="235.0809" font-weight="400" font-size="19.7517" font-family="'Source Code Pro','Deja Vu Sans Mono',Courier,monospace" letter-spacing="0" word-spacing="0" stroke-width="1.646"><tspan x="-29.2562" y="235.0809" style="line-height:1.25" font-size="23.0437">public_html</tspan></text><text y="274.5843" x="10.2473" style="line-height:0%;-inkscape-font-specification:'Source Code Pro';text-align:start" font-weight="400" font-size="19.7517" font-family="'Source Code Pro','Deja Vu Sans Mono',Courier,monospace" letter-spacing="0" word-spacing="0" stroke-width="1.646"><tspan y="274.5843" x="10.2473" style="line-height:1.25" font-size="23.0437">menu.html</tspan></text><text y="506.7742" x="89.2541" style="line-height:0%;-inkscape-font-specification:'Source Code Pro';text-align:start" font-weight="400" font-size="19.7517" font-family="'Source Code Pro','Deja Vu Sans Mono',Courier,monospace" letter-spacing="0" word-spacing="0" stroke-width="1.646"><tspan y="506.7742" x="89.2541" style="line-height:1.25" font-size="23.0437">poster.svg</tspan></text><g transform="matrix(.823 0 0 .82299 -70.5065 206.3866)"><g fill-rule="evenodd"><path d="m 32.706693,164.36026 c -10.3875,0 -18.75,8.3625 -18.75,18.75 0,10.3875 8.3625,18.75 18.75,18.75 H 205.20669 c 10.3875,0 18.75,-8.3625 18.75,-18.75 0,-10.3875 -8.3625,-18.75 -18.75,-18.75 z" opacity=".0479" transform="matrix(.21608 0 0 .2631 -.8932 -10.2424)"/><path d="m 32.706693,165.61026 c -9.695,0 -17.5,7.805 -17.5,17.5 0,9.695 7.805,17.5 17.5,17.5 H 205.20669 c 9.695,0 17.5,-7.805 17.5,-17.5 0,-9.695 -7.805,-17.5 -17.5,-17.5 z" opacity=".0479" transform="matrix(.21608 0 0 .2631 -.8932 -10.2424)"/><path d="m 32.706694,166.86026 c -9.0025,0 -16.25,7.2475 -16.25,16.25 0,9.0025 7.2475,16.25 16.25,16.25 H 205.20669 c 9.0025,0 16.25,-7.2475 16.25,-16.25 0,-9.0025 -7.2475,-16.25 -16.25,-16.25 z" opacity=".0479" transform="matrix(.21608 0 0 .2631 -.8932 -10.2424)"/><path d="m 32.706694,168.11026 c -8.31,0 -15,6.69 -15,15 0,8.31 6.69,15 15,15 H 205.20669 c 8.31,0 15,-6.69 15,-15 0,-8.31 -6.69,-15 -15,-15 z" opacity=".0479" transform="matrix(.21608 0 0 .2631 -.8932 -10.2424)"/><path d="m 32.707764,169.36026 c -7.6175,0 -13.75,6.1325 -13.75,13.75 0,7.6175 6.1325,13.75 13.75,13.75 H 205.20618 c 7.6175,0 13.75,-6.1325 13.75,-13.75 0,-7.6175 -6.1325,-13.75 -13.75,-13.75 z" opacity=".0479" transform="matrix(.21608 0 0 .2631 -.8932 -10.2424)"/><path d="m 32.706694,170.61026 c -6.925,0 -12.5,5.575 -12.5,12.5 0,6.925 5.575,12.5 12.5,12.5 H 205.20669 c 6.925,0 12.5,-5.575 12.5,-12.5 0,-6.925 -5.575,-12.5 -12.5,-12.5 z" opacity=".0479" transform="matrix(.21608 0 0 .2631 -.8932 -10.2424)"/><path d="m 32.706694,171.86026 c -6.2325,0 -11.25,5.0175 -11.25,11.25 0,6.2325 5.0175,11.25 11.25,11.25 H 205.20669 c 6.2325,0 11.25,-5.0175 11.25,-11.25 0,-6.2325 -5.0175,-11.25 -11.25,-11.25 z" opacity=".0479" transform="matrix(.21608 0 0 .2631 -.8932 -10.2424)"/><path d="m 32.706694,173.11026 c -5.54,0 -10,4.46 -10,10 0,5.54 4.46,10 10,10 H 205.20669 c 5.54,0 10,-4.46 10,-10 0,-5.54 -4.46,-10 -10,-10 z" opacity=".0479" transform="matrix(.21608 0 0 .2631 -.8932 -10.2424)"/></g><path d="m 5.4186638,5.45611 c -0.4649766,0 -0.8151104,0.2352268 -0.8151104,0.726723 v 33.020961 c 0,0.727146 0.487105,1.21156 1.149057,1.21156 H 43.489564 c 0.665802,0 0.930308,-0.452766 0.930308,-1.08656 V 10.425912 c 0,-0.5429651 -0.400287,-0.836558 -0.899058,-0.836558 H 24.41149 c -0.337013,0 -0.69668,-0.198426 -0.894481,-0.471287 L 20.914778,5.918058 C 20.696913,5.617519 20.272703,5.456125 19.9015,5.456125 Z" fill="url(#z)" fill-rule="evenodd" stroke="#555753"/><path d="m 5.0625,7.90625 v 28.25 L 6.03125,31.78125 6.25,9.15625 c 0,-0.7504226 0.5114657,-1.125 1.2369586,-1.125 H 19.09375 c 1.561596,0 3.014848,3.1875 5.317667,3.1875 5.971619,0 19.338396,0.08759 19.338583,0 V 10.1875 L 24.21875,10.0625 C 22.362615,10.05062 21.088324,6.90625 19.65625,6.90625 H 6.2838336 c -0.8153288,0 -1.2213336,0.3541661 -1.2213336,1 z" style="marker:none" color="#000" overflow="visible" fill="url(#A)" fill-rule="evenodd"/><path d="m 7.6864537,16.296282 h 7.9333453 c 0.741734,0 1.36797,-0.380811 1.687167,-0.882004 0.136743,-0.214709 1.267982,-2.125728 1.357674,-2.256226 0.298787,-0.434724 0.772917,-0.758916 1.341982,-0.758916 h 23.042233 c 0.802837,0 1.449163,0.643789 1.449163,1.443474 v 25.072849 c 0,0.799684 -0.646326,1.443473 -1.449163,1.443473 H 6.1279084 c -0.8028359,0 -1.4491623,-0.643789 -1.4491623,-1.443473 V 19.481904 c 0,-1.974365 1.1403162,-3.185622 3.0077076,-3.185622 z" style="marker:none" color="#000" overflow="visible" fill="url(#B)" fill-rule="evenodd" stroke="#555753" stroke-linejoin="round"/><path d="m 20.5,13.75 c -0.646419,0 -1.00904,0.281698 -1.375,0.75 -0.36596,0.468302 -0.781498,1.171815 -1.0625,1.71875 -0.281002,0.546935 -0.569091,1.054169 -0.84375,1.40625 -0.274659,0.352081 -0.489583,0.5 -0.71875,0.5 -1.25,0 -9.1571699,0 -9.6571699,0 -0.4583333,0 -0.8354702,0.230519 -1.15625,0.53125 -0.3207798,0.300731 -0.59375,0.70625 -0.59375,1.21875 1e-7,0.624998 0,19.375 0,19.375 h 1 c 0,0 1e-7,-18.749998 0,-19.375 0,-0.1125 0.1020298,-0.331981 0.28125,-0.5 0.1792202,-0.168019 0.4270834,-0.25 0.46875,-0.25 0.5,0 8.4071699,0 9.6571699,0 0.645833,0 1.134731,-0.406768 1.5,-0.875 0.365269,-0.468232 0.656559,-1.046935 0.9375,-1.59375 0.280941,-0.546815 0.631167,-1.179239 0.90625,-1.53125 0.275083,-0.352011 0.425439,-0.375 0.65625,-0.375 1.216667,0 23.25,0.125 23.25,0.125 v -1 c 0,0 -21.966667,-0.125 -23.25,-0.125 z" style="marker:none" color="#000" overflow="visible" fill="url(#C)" fill-rule="evenodd"/><rect ry="1.25" rx="1.4435" y="7.3598" x="5.529" height="1.25" width="1.25" style="marker:none" color="#000" overflow="visible" fill="#fffffd" fill-rule="evenodd"/><rect ry=".4375" rx=".4375" y="15.75" x="5.5382" height="23.625" width="37.9582" style="marker:none" color="#000" overflow="visible" opacity=".2857" fill="none" stroke="url(#D)" stroke-linecap="square" stroke-linejoin="round"/></g><g opacity=".6559"><g transform="matrix(.90652 0 0 .94056 -37.9037 243.1345)" opacity=".4"><rect y="40" x="38" height="7" width="5" fill="url(#E)"/><rect transform="scale(-1)" y="-47" x="-10" height="7" width="5" fill="url(#F)"/><rect y="40" x="10" height="7" width="28" fill="url(#G)"/></g></g><g transform="matrix(.82719 0 0 .58785 -35.9996 258.4773)" opacity=".4"><rect y="40" x="38" height="7" width="5" fill="url(#H)"/><rect transform="scale(-1)" y="-47" x="-10" height="7" width="5" fill="url(#I)"/><rect y="40" x="10" height="7" width="28" fill="url(#J)"/></g><path d="m -141.47614,63.5 c 0,0 17.47614,0 18.97614,0 3.87705,0.07294 6.5,2.5 9,5 2.5,2.5 4.60768,5.252625 5,9 0,1.5 0,24.97614 0,24.97614 0,1.12122 -0.90264,2.02386 -2.02385,2.02386 h -30.95229 c -1.12122,0 -2.02386,-0.90264 -2.02386,-2.02386 V 65.523858 c 0,-1.121217 0.90264,-2.023858 2.02386,-2.023858 z" fill="url(#K)" stroke="url(#L)" transform="matrix(.82299 0 0 .82299 87.6081 198.8695)"/><path d="m 8.53125,3.9863281 c -0.8581697,0 -1.5449219,0.6867521 -1.5449219,1.5449219 v 36.9375 c 0,0.85817 0.6867521,1.544922 1.5449219,1.544922 h 30.9375 c 0.858169,0 1.544922,-0.686754 1.544922,-1.544922 V 17.5 c 0,-1.39197 -0.500651,-4.299479 -2.357422,-6.15625 l -5,-5 C 31.799479,4.4869792 28.89197,3.9863281 27.5,3.9863281 Z" transform="matrix(.82299 0 0 .82299 -35.84 248.2488)" opacity=".6802" fill="url(#M)"/><path style="marker:none" d="m -138.59375,69.125 c -0.21868,0 -0.40625,0.187565 -0.40625,0.40625 0,0.218684 0.18757,0.406249 0.40625,0.40625 h 21.1875 c 0.21868,0 0.40625,-0.187566 0.40625,-0.40625 0,-0.218684 -0.18757,-0.40625 -0.40625,-0.40625 z m 0.0625,1.9375 c -0.25969,0 -0.46875,0.209063 -0.46875,0.46875 0,0.259687 0.20906,0.46875 0.46875,0.46875 h 22.0625 c 0.25969,0 0.46875,-0.209063 0.46875,-0.46875 0,-0.259687 -0.20906,-0.46875 -0.46875,-0.46875 z m 0,2 c -0.25969,0 -0.46875,0.209063 -0.46875,0.46875 0,0.259687 0.20906,0.46875 0.46875,0.46875 h 25.1875 c 0.25969,0 0.46875,-0.209063 0.46875,-0.46875 0,-0.259687 -0.20906,-0.46875 -0.46875,-0.46875 z m 0,2 c -0.25969,0 -0.46875,0.209063 -0.46875,0.46875 0,0.259687 0.20906,0.46875 0.46875,0.46875 h 25.1875 c 0.25969,0 0.46875,-0.209063 0.46875,-0.46875 0,-0.259687 -0.20906,-0.46875 -0.46875,-0.46875 z m 0,2 c -0.25969,0 -0.46875,0.209063 -0.46875,0.46875 0,0.259687 0.20906,0.46875 0.46875,0.46875 h 25.1875 c 0.25969,0 0.46875,-0.209063 0.46875,-0.46875 0,-0.259687 -0.20906,-0.46875 -0.46875,-0.46875 z" overflow="visible" opacity=".15" fill="url(#N)" fill-rule="evenodd" transform="matrix(.82299 0 0 .82299 87.6081 198.8695)"/><path d="m -122.5,64 c -1.38889,0 -0.0421,0.497088 1.34375,1.125 1.38582,0.627912 4.97288,3.215052 4.15625,6.875 4.32331,-0.430583 6.67913,3.122378 7,4.28125 0.32087,1.158872 1,2.607639 1,1.21875 0.0283,-3.805581 -2.84543,-6.431701 -4.84375,-8.65625 C -115.84207,66.619201 -118.84621,64.476761 -122.5,64 Z" fill="url(#O)" transform="matrix(.82299 0 0 .82299 87.6081 198.8695)"/><path d="m -121.39912,65.014353 c 0.9223,0 3.00844,6.195662 2.08614,10.32925 4.29496,-0.427759 8.85338,0.08818 9.31298,0.937647 -0.32087,-1.158872 -2.67669,-4.711833 -7,-4.28125 0.86466,-3.875239 -3.18657,-6.617298 -4.39912,-6.985647 z" opacity=".8785" fill="url(#P)" transform="matrix(.82299 0 0 .82299 87.6081 198.8695)"/><path d="m -51.46875,4.4941406 c -0.583166,0 -1.037109,0.4539436 -1.037109,1.0371094 v 36.9375 c 0,0.583165 0.453945,1.037109 1.037109,1.037109 h 30.9375 c 0.583165,0 1.037109,-0.453945 1.037109,-1.037109 V 17.5 c 0,-1.279029 -0.501953,-4.089844 -2.208984,-5.796875 l -5,-5 C -28.410156,4.9960937 -31.220971,4.4941406 -32.5,4.4941406 Z" transform="matrix(.82299 0 0 .82299 13.5392 248.2488)" fill="none" stroke="url(#Q)"/><g transform="matrix(.76446 0 0 .82299 -34.4319 248.2488)" opacity=".15" fill-rule="evenodd"><rect style="marker:none" width="28.125" height=".9375" x="10" y="19.0625" rx=".5046" ry=".4688" overflow="visible"/><rect ry=".4688" rx=".5046" y="21.0625" x="10" height=".9375" width="28.125" style="marker:none" overflow="visible"/><rect ry=".4688" rx=".5046" y="23.0625" x="10" height=".9375" width="28.125" style="marker:none" overflow="visible"/><rect style="marker:none" width="28.125" height=".9375" x="10" y="25.0625" rx=".5046" ry=".4688" overflow="visible"/><rect style="marker:none" width="28.125" height=".9375" x="10" y="27.0625" rx=".5046" ry=".4688" overflow="visible"/><rect ry=".4688" rx=".5046" y="29.0625" x="10" height=".9375" width="28.125" style="marker:none" overflow="visible"/><rect ry=".4688" rx=".5046" y="31.0625" x="10" height=".9375" width="28.125" style="marker:none" overflow="visible"/><rect style="marker:none" width="28.125" height=".9375" x="10" y="33.0625" rx=".5046" ry=".4688" overflow="visible"/><rect style="marker:none" width="28.125" height=".9375" x="10" y="35.0625" rx=".5046" ry=".4688" overflow="visible"/><rect style="marker:none" width="13.8125" height=".9375" x="10" y="37.0625" rx=".5046" ry=".4688" overflow="visible"/></g><g transform="matrix(.82299 0 0 .82299 43.1668 483.7305)"><g color="#000"><rect y="26" x="2" height="18" width="33" style="marker:none" overflow="visible" opacity=".392" fill="url(#R)"/><path d="m 35,26.00062 c 0,0 0,17.999007 0,17.999007 2.30962,0.01455 5.033409,-0.727312 7.389531,-1.972134 C 45.519106,40.37403 48.000002,37.833194 48,34.998965 48,30.030967 41.999197,26.000621 35,26.00062 Z" style="marker:none" overflow="visible" opacity=".4021" fill="url(#S)"/><path style="marker:none" d="m 2,26.00062 c 0,0 0,17.999007 0,17.999007 C 1.172704,44.03351 1.3577825e-6,39.966963 1.3577825e-6,34.998965 1.3577825e-6,30.030967 0.92320113,26.000621 2,26.00062 Z" overflow="visible" opacity=".4021" fill="url(#T)"/></g><path d="m 2.767767,6.5 h 42.46447 c 0.702343,0 1.267767,0.5654241 1.267767,1.267767 L 46.5,30.5 c 0,0.702343 -10.297657,10 -11,10 H 2.767767 C 2.0654241,40.5 1.5,39.934576 1.5,39.232233 V 7.767767 C 1.5,7.0654241 2.0654241,6.5 2.767767,6.5 Z" fill="url(#U)" stroke="#888a85" stroke-linecap="round" stroke-linejoin="round"/><path d="M 4.9874617,9.5 H 43.039565 c 0.270054,0 0.487462,0.2276458 0.487462,0.510417 V 33.989583 L 40.039565,37.5 H 4.9874617 C 4.7174079,37.5 4.5,37.272354 4.5,36.989583 V 10.010417 C 4.5,9.7276458 4.7174079,9.5 4.9874617,9.5 Z" fill="url(#V)" stroke="#888a85" stroke-linecap="round" stroke-linejoin="round"/><path style="marker:none" d="m 16.083789,23.551777 c -5.168779,0.327955 -9.2812506,4.655188 -9.2812506,9.90625 0,0.202785 0.01921,0.393975 0.03125,0.59375 H 26.583789 c 0.01204,-0.199775 0.03125,-0.390965 0.03125,-0.59375 0,-5.464521 -4.441729,-9.90625 -9.90625,-9.90625 -0.213458,0 -0.414887,-0.01333 -0.625,0 z" color="#000" overflow="visible" fill="url(#W)" fill-rule="evenodd"/><rect width="38" height="3" x="5" y="34" rx="0" ry="0" fill="url(#X)"/><path d="m 14.78125,40 h 20.625 c 0.0102,-0.0045 0.01696,-0.004 0.0625,-0.03125 0.09108,-0.05454 0.239108,-0.158764 0.40625,-0.28125 0.334283,-0.244972 0.784837,-0.593604 1.3125,-1.03125 1.055327,-0.875293 2.42316,-2.047759 3.75,-3.25 1.32684,-1.202241 2.626277,-2.44468 3.59375,-3.40625 0.483737,-0.480785 0.886656,-0.881222 1.15625,-1.1875 0.134797,-0.153139 0.223302,-0.293223 0.28125,-0.375 C 45.98324,30.41706 45.99168,30.41954 46,30.40625 v -16.625 z" opacity=".819" fill="url(#Y)"/><path d="m 29.555584,34.972272 c 0,0 -0.555584,-3.239746 -0.555584,-5.224471 0.01541,-0.905405 7.786707,-7.958802 7.806757,-9.009433 L 35,22.392753 33.734835,18.776232 38,19.24059 40,17.139148 37.734835,18.886405 36.955806,18.700662 36,15.037705 36.486136,18.607791 32.955806,18.422048 34.06066,21.376634 31,18.189869 34.237437,22.62545 c 8.5e-5,0.989283 -6.380874,7.028486 -6.37002,5.987149 L 25.220971,24.882982 25,19.841002 27,19.24059 28.752155,14.700822 26.442435,18.896683 24.639267,18.810834 20.602879,15.228917 15.06066,13 19.795495,15.734242 16,16.088427 h 5 l 3,3.152163 0.353553,5.444817 L 19,19.24059 21.251301,22.085004 18,24.494195 21.571429,22.392753 27.220971,29.869807 27,34.972272 Z" fill-rule="evenodd"/><path d="m 16.367734,28.233668 c -2.820539,0.178961 -5.064664,2.540279 -5.064664,5.405719 0,0.110657 0.01048,0.214987 0.01705,0.324002 h 10.777333 c 0.0066,-0.109015 0.01705,-0.213345 0.01705,-0.324002 0,-2.981922 -2.423797,-5.405719 -5.405719,-5.405719 -0.116482,0 -0.226399,-0.0073 -0.341055,0 z" style="marker:none" color="#000" overflow="visible" fill="#fef39e" fill-rule="evenodd"/><path style="marker:none" d="m 16.448682,29.531973 c -2.151088,0.136486 -3.862573,1.937349 -3.862573,4.122681 0,0.08439 0.008,0.16396 0.013,0.2471 h 8.219349 c 0.005,-0.08314 0.01301,-0.162708 0.01301,-0.2471 0,-2.274167 -1.848512,-4.122681 -4.12268,-4.122681 -0.08883,0 -0.172663,-0.0055 -0.260107,0 z" color="#000" overflow="visible" fill="#fffbd7" fill-opacity=".5568" fill-rule="evenodd"/><path d="M 2.78125,7.5 C 2.6253137,7.5 2.5,7.6253137 2.5,7.78125 v 31.4375 C 2.5,39.374686 2.6253136,39.5 2.78125,39.5 h 34.5 C 40.921301,36.704635 42.365769,35.606734 45.5,32.25 V 7.78125 C 45.5,7.6253155 45.374683,7.5 45.21875,7.5 Z" fill="none" stroke="#fff" stroke-linecap="round" stroke-linejoin="round"/><path d="m 46.5,30.5 c 0,5 -6,10 -11,10 0,0 4.432134,-2.16262 4,-7 4.379686,0.416135 7,-3 7,-3 z" fill="url(#Z)" fill-rule="evenodd" stroke="url(#aa)" stroke-linejoin="round"/><path d="m 45.71875,31.96875 c -1.141161,0.963781 -3.038894,2.12059 -5.6875,2.0625 0.02848,2.743194 -1.332152,4.55626 -2.5625,5.65625 1.484391,-0.981249 3.356416,-2.315695 3.5625,-4.65625 2.161131,-0.0033 3.587964,-1.720595 4.65625,-3 0.0055,-0.02167 0.02592,-0.04082 0.03125,-0.0625 z" opacity=".7328" fill="url(#ab)" fill-rule="evenodd"/><path d="M 2.78125,7 C 2.3536576,7 2,7.3536576 2,7.78125 v 23.3125 C 14.714701,22.184679 34.055102,15.625228 46,19.3125 V 7.78125 C 46,7.3536585 45.64634,7 45.21875,7 Z" opacity=".3448" fill="url(#ac)"/><path d="M 2.78125,7.5 C 2.628408,7.5 2.5,7.628408 2.5,7.78125 v 31.4375 C 2.5,39.371592 2.6284079,39.5 2.78125,39.5 H 35.5 c 2.166667,0 4.743499,-1.137302 6.712891,-2.875 C 44.182282,34.887302 45.5,32.6 45.5,30.5 V 7.78125 C 45.5,7.6284098 45.371589,7.5 45.21875,7.5 Z" opacity=".4181" fill="none" stroke="#fff" stroke-linecap="round" stroke-linejoin="round"/></g><g id="aw"><g transform="matrix(.823 0 0 .82299 -37.587 288.6854)"><g fill-rule="evenodd" stroke-width="4"><path d="m 32.706693,164.36026 c -10.3875,0 -18.75,8.3625 -18.75,18.75 0,10.3875 8.3625,18.75 18.75,18.75 H 205.20669 c 10.3875,0 18.75,-8.3625 18.75,-18.75 0,-10.3875 -8.3625,-18.75 -18.75,-18.75 z" opacity=".0479" transform="matrix(.21608 0 0 .2631 -.8932 -10.2424)"/><path d="m 32.706693,165.61026 c -9.695,0 -17.5,7.805 -17.5,17.5 0,9.695 7.805,17.5 17.5,17.5 H 205.20669 c 9.695,0 17.5,-7.805 17.5,-17.5 0,-9.695 -7.805,-17.5 -17.5,-17.5 z" opacity=".0479" transform="matrix(.21608 0 0 .2631 -.8932 -10.2424)"/><path d="m 32.706694,166.86026 c -9.0025,0 -16.25,7.2475 -16.25,16.25 0,9.0025 7.2475,16.25 16.25,16.25 H 205.20669 c 9.0025,0 16.25,-7.2475 16.25,-16.25 0,-9.0025 -7.2475,-16.25 -16.25,-16.25 z" opacity=".0479" transform="matrix(.21608 0 0 .2631 -.8932 -10.2424)"/><path d="m 32.706694,168.11026 c -8.31,0 -15,6.69 -15,15 0,8.31 6.69,15 15,15 H 205.20669 c 8.31,0 15,-6.69 15,-15 0,-8.31 -6.69,-15 -15,-15 z" opacity=".0479" transform="matrix(.21608 0 0 .2631 -.8932 -10.2424)"/><path d="m 32.707764,169.36026 c -7.6175,0 -13.75,6.1325 -13.75,13.75 0,7.6175 6.1325,13.75 13.75,13.75 H 205.20618 c 7.6175,0 13.75,-6.1325 13.75,-13.75 0,-7.6175 -6.1325,-13.75 -13.75,-13.75 z" opacity=".0479" transform="matrix(.21608 0 0 .2631 -.8932 -10.2424)"/><path d="m 32.706694,170.61026 c -6.925,0 -12.5,5.575 -12.5,12.5 0,6.925 5.575,12.5 12.5,12.5 H 205.20669 c 6.925,0 12.5,-5.575 12.5,-12.5 0,-6.925 -5.575,-12.5 -12.5,-12.5 z" opacity=".0479" transform="matrix(.21608 0 0 .2631 -.8932 -10.2424)"/><path d="m 32.706694,171.86026 c -6.2325,0 -11.25,5.0175 -11.25,11.25 0,6.2325 5.0175,11.25 11.25,11.25 H 205.20669 c 6.2325,0 11.25,-5.0175 11.25,-11.25 0,-6.2325 -5.0175,-11.25 -11.25,-11.25 z" opacity=".0479" transform="matrix(.21608 0 0 .2631 -.8932 -10.2424)"/><path d="m 32.706694,173.11026 c -5.54,0 -10,4.46 -10,10 0,5.54 4.46,10 10,10 H 205.20669 c 5.54,0 10,-4.46 10,-10 0,-5.54 -4.46,-10 -10,-10 z" opacity=".0479" transform="matrix(.21608 0 0 .2631 -.8932 -10.2424)"/></g><path d="m 5.4186638,5.45611 c -0.4649766,0 -0.8151104,0.2352268 -0.8151104,0.726723 v 33.020961 c 0,0.727146 0.487105,1.21156 1.149057,1.21156 H 43.489564 c 0.665802,0 0.930308,-0.452766 0.930308,-1.08656 V 10.425912 c 0,-0.5429651 -0.400287,-0.836558 -0.899058,-0.836558 H 24.41149 c -0.337013,0 -0.69668,-0.198426 -0.894481,-0.471287 L 20.914778,5.918058 C 20.696913,5.617519 20.272703,5.456125 19.9015,5.456125 Z" fill="url(#ad)" fill-rule="evenodd" stroke="#555753"/><path style="marker:none" d="m 5.0625,7.90625 v 28.25 L 6.03125,31.78125 6.25,9.15625 c 0,-0.7504226 0.5114657,-1.125 1.2369586,-1.125 H 19.09375 c 1.561596,0 3.014848,3.1875 5.317667,3.1875 5.971619,0 19.338396,0.08759 19.338583,0 V 10.1875 L 24.21875,10.0625 C 22.362615,10.05062 21.088324,6.90625 19.65625,6.90625 H 6.2838336 c -0.8153288,0 -1.2213336,0.3541661 -1.2213336,1 z" color="#000" overflow="visible" fill="url(#ae)" fill-rule="evenodd" stroke-width=".3333"/><path style="marker:none" d="m 7.6864537,16.296282 h 7.9333453 c 0.741734,0 1.36797,-0.380811 1.687167,-0.882004 0.136743,-0.214709 1.267982,-2.125728 1.357674,-2.256226 0.298787,-0.434724 0.772917,-0.758916 1.341982,-0.758916 h 23.042233 c 0.802837,0 1.449163,0.643789 1.449163,1.443474 v 25.072849 c 0,0.799684 -0.646326,1.443473 -1.449163,1.443473 H 6.1279084 c -0.8028359,0 -1.4491623,-0.643789 -1.4491623,-1.443473 V 19.481904 c 0,-1.974365 1.1403162,-3.185622 3.0077076,-3.185622 z" color="#000" overflow="visible" fill="url(#af)" fill-rule="evenodd" stroke="#555753" stroke-linejoin="round"/><path style="marker:none" d="m 20.5,13.75 c -0.646419,0 -1.00904,0.281698 -1.375,0.75 -0.36596,0.468302 -0.781498,1.171815 -1.0625,1.71875 -0.281002,0.546935 -0.569091,1.054169 -0.84375,1.40625 -0.274659,0.352081 -0.489583,0.5 -0.71875,0.5 -1.25,0 -9.1571699,0 -9.6571699,0 -0.4583333,0 -0.8354702,0.230519 -1.15625,0.53125 -0.3207798,0.300731 -0.59375,0.70625 -0.59375,1.21875 1e-7,0.624998 0,19.375 0,19.375 h 1 c 0,0 1e-7,-18.749998 0,-19.375 0,-0.1125 0.1020298,-0.331981 0.28125,-0.5 0.1792202,-0.168019 0.4270834,-0.25 0.46875,-0.25 0.5,0 8.4071699,0 9.6571699,0 0.645833,0 1.134731,-0.406768 1.5,-0.875 0.365269,-0.468232 0.656559,-1.046935 0.9375,-1.59375 0.280941,-0.546815 0.631167,-1.179239 0.90625,-1.53125 0.275083,-0.352011 0.425439,-0.375 0.65625,-0.375 1.216667,0 23.25,0.125 23.25,0.125 v -1 c 0,0 -21.966667,-0.125 -23.25,-0.125 z" color="#000" overflow="visible" fill="url(#ag)" fill-rule="evenodd" stroke-width=".3333"/><rect style="marker:none" width="1.25" height="1.25" x="5.529" y="7.3598" rx="1.4435" ry="1.25" color="#000" overflow="visible" fill="#fffffd" fill-rule="evenodd" stroke-width=".3333"/><rect style="marker:none" width="37.9582" height="23.625" x="5.5382" y="15.75" rx=".4375" ry=".4375" color="#000" overflow="visible" opacity=".2857" fill="none" stroke="url(#ah)" stroke-linecap="square" stroke-linejoin="round"/></g></g><text style="line-height:0%;-inkscape-font-specification:'Source Code Pro';text-align:start" x="10.2473" y="310.7958" font-weight="400" font-size="19.7517" font-family="'Source Code Pro','Deja Vu Sans Mono',Courier,monospace" letter-spacing="0" word-spacing="0" stroke-width="1.646"><tspan x="10.2473" y="310.7958" style="line-height:1.25" font-size="23.0437">courses</tspan><tspan x="10.2473" y="339.6004" style="line-height:1.25" font-size="23.0437"></tspan></text><g id="av"><g opacity=".6559"><g transform="matrix(.90652 0 0 .94056 1.5997 318.8494)" opacity=".4"><rect y="40" x="38" height="7" width="5" fill="url(#ai)"/><rect transform="scale(-1)" y="-47" x="-10" height="7" width="5" fill="url(#aj)"/><rect y="40" x="10" height="7" width="28" fill="url(#ak)"/></g></g><g transform="matrix(.82719 0 0 .58785 3.5038 334.1922)" opacity=".4"><rect y="40" x="38" height="7" width="5" fill="url(#al)"/><rect transform="scale(-1)" y="-47" x="-10" height="7" width="5" fill="url(#am)"/><rect y="40" x="10" height="7" width="28" fill="url(#an)"/></g><path d="m -141.47614,63.5 c 0,0 17.47614,0 18.97614,0 3.87705,0.07294 6.5,2.5 9,5 2.5,2.5 4.60768,5.252625 5,9 0,1.5 0,24.97614 0,24.97614 0,1.12122 -0.90264,2.02386 -2.02385,2.02386 h -30.95229 c -1.12122,0 -2.02386,-0.90264 -2.02386,-2.02386 V 65.523858 c 0,-1.121217 0.90264,-2.023858 2.02386,-2.023858 z" fill="url(#ao)" stroke="url(#ap)" transform="matrix(.82299 0 0 .82299 127.1116 274.5844)"/><path d="m 8.53125,3.9863281 c -0.8581697,0 -1.5449219,0.6867521 -1.5449219,1.5449219 v 36.9375 c 0,0.85817 0.6867521,1.544922 1.5449219,1.544922 h 30.9375 c 0.858169,0 1.544922,-0.686754 1.544922,-1.544922 V 17.5 c 0,-1.39197 -0.500651,-4.299479 -2.357422,-6.15625 l -5,-5 C 31.799479,4.4869792 28.89197,3.9863281 27.5,3.9863281 Z" transform="matrix(.82299 0 0 .82299 3.6634 323.9637)" opacity=".6802" fill="url(#aq)"/><path style="marker:none" d="m -138.59375,69.125 c -0.21868,0 -0.40625,0.187565 -0.40625,0.40625 0,0.218684 0.18757,0.406249 0.40625,0.40625 h 21.1875 c 0.21868,0 0.40625,-0.187566 0.40625,-0.40625 0,-0.218684 -0.18757,-0.40625 -0.40625,-0.40625 z m 0.0625,1.9375 c -0.25969,0 -0.46875,0.209063 -0.46875,0.46875 0,0.259687 0.20906,0.46875 0.46875,0.46875 h 22.0625 c 0.25969,0 0.46875,-0.209063 0.46875,-0.46875 0,-0.259687 -0.20906,-0.46875 -0.46875,-0.46875 z m 0,2 c -0.25969,0 -0.46875,0.209063 -0.46875,0.46875 0,0.259687 0.20906,0.46875 0.46875,0.46875 h 25.1875 c 0.25969,0 0.46875,-0.209063 0.46875,-0.46875 0,-0.259687 -0.20906,-0.46875 -0.46875,-0.46875 z m 0,2 c -0.25969,0 -0.46875,0.209063 -0.46875,0.46875 0,0.259687 0.20906,0.46875 0.46875,0.46875 h 25.1875 c 0.25969,0 0.46875,-0.209063 0.46875,-0.46875 0,-0.259687 -0.20906,-0.46875 -0.46875,-0.46875 z m 0,2 c -0.25969,0 -0.46875,0.209063 -0.46875,0.46875 0,0.259687 0.20906,0.46875 0.46875,0.46875 h 25.1875 c 0.25969,0 0.46875,-0.209063 0.46875,-0.46875 0,-0.259687 -0.20906,-0.46875 -0.46875,-0.46875 z" overflow="visible" opacity=".15" fill="url(#ar)" fill-rule="evenodd" transform="matrix(.82299 0 0 .82299 127.1116 274.5844)"/><path d="m -122.5,64 c -1.38889,0 -0.0421,0.497088 1.34375,1.125 1.38582,0.627912 4.97288,3.215052 4.15625,6.875 4.32331,-0.430583 6.67913,3.122378 7,4.28125 0.32087,1.158872 1,2.607639 1,1.21875 0.0283,-3.805581 -2.84543,-6.431701 -4.84375,-8.65625 C -115.84207,66.619201 -118.84621,64.476761 -122.5,64 Z" fill="url(#as)" transform="matrix(.82299 0 0 .82299 127.1116 274.5844)"/><path d="m -121.39912,65.014353 c 0.9223,0 3.00844,6.195662 2.08614,10.32925 4.29496,-0.427759 8.85338,0.08818 9.31298,0.937647 -0.32087,-1.158872 -2.67669,-4.711833 -7,-4.28125 0.86466,-3.875239 -3.18657,-6.617298 -4.39912,-6.985647 z" opacity=".8785" fill="url(#at)" transform="matrix(.82299 0 0 .82299 127.1116 274.5844)"/><path d="m -51.46875,4.4941406 c -0.583166,0 -1.037109,0.4539436 -1.037109,1.0371094 v 36.9375 c 0,0.583165 0.453945,1.037109 1.037109,1.037109 h 30.9375 c 0.583165,0 1.037109,-0.453945 1.037109,-1.037109 V 17.5 c 0,-1.279029 -0.501953,-4.089844 -2.208984,-5.796875 l -5,-5 C -28.410156,4.9960937 -31.220971,4.4941406 -32.5,4.4941406 Z" transform="matrix(.82299 0 0 .82299 53.0426 323.9637)" fill="none" stroke="url(#au)"/><g transform="matrix(.76446 0 0 .82299 5.0716 323.9637)" opacity=".15" fill-rule="evenodd"><rect style="marker:none" width="28.125" height=".9375" x="10" y="19.0625" rx=".5046" ry=".4688" overflow="visible"/><rect ry=".4688" rx=".5046" y="21.0625" x="10" height=".9375" width="28.125" style="marker:none" overflow="visible"/><rect ry=".4688" rx=".5046" y="23.0625" x="10" height=".9375" width="28.125" style="marker:none" overflow="visible"/><rect style="marker:none" width="28.125" height=".9375" x="10" y="25.0625" rx=".5046" ry=".4688" overflow="visible"/><rect style="marker:none" width="28.125" height=".9375" x="10" y="27.0625" rx=".5046" ry=".4688" overflow="visible"/><rect ry=".4688" rx=".5046" y="29.0625" x="10" height=".9375" width="28.125" style="marker:none" overflow="visible"/><rect ry=".4688" rx=".5046" y="31.0625" x="10" height=".9375" width="28.125" style="marker:none" overflow="visible"/><rect style="marker:none" width="28.125" height=".9375" x="10" y="33.0625" rx=".5046" ry=".4688" overflow="visible"/><rect style="marker:none" width="28.125" height=".9375" x="10" y="35.0625" rx=".5046" ry=".4688" overflow="visible"/><rect style="marker:none" width="13.8125" height=".9375" x="10" y="37.0625" rx=".5046" ry=".4688" overflow="visible"/></g></g><text y="350.2993" x="49.7507" style="line-height:0%;-inkscape-font-specification:'Source Code Pro';text-align:start" font-weight="400" font-size="19.7517" font-family="'Source Code Pro','Deja Vu Sans Mono',Courier,monospace" letter-spacing="0" word-spacing="0" stroke-width="1.646"><tspan y="350.2993" x="49.7507" style="line-height:1.25" font-size="23.0437">csci165.html</tspan></text><use x="0" y="0" xlink:href="#av" id="y" transform="translate(0 39.5034)" width="240" height="300"/><text style="line-height:0%;-inkscape-font-specification:'Source Code Pro';text-align:start" x="49.7507" y="389.8027" font-weight="400" font-size="19.7517" font-family="'Source Code Pro','Deja Vu Sans Mono',Courier,monospace" letter-spacing="0" word-spacing="0" stroke-width="1.646"><tspan x="49.7507" y="389.8027" style="line-height:1.25" font-size="23.0437">math.html</tspan></text><use xlink:href="#aw" transform="translate(39.5034 118.5103)" width="220" height="300"/><text y="429.3061" x="49.7507" style="line-height:0%;-inkscape-font-specification:'Source Code Pro';text-align:start" font-weight="400" font-size="19.7517" font-family="'Source Code Pro','Deja Vu Sans Mono',Courier,monospace" letter-spacing="0" word-spacing="0" stroke-width="1.646"><tspan y="429.3061" x="49.7507" style="line-height:1.25" font-size="23.0437">summer</tspan><tspan y="458.1107" x="49.7507" style="line-height:1.25" font-size="23.0437"></tspan></text><text y="468.8096" x="89.2541" style="line-height:0%;-inkscape-font-specification:'Source Code Pro';text-align:start" font-weight="400" font-size="19.7517" font-family="'Source Code Pro','Deja Vu Sans Mono',Courier,monospace" letter-spacing="0" word-spacing="0" stroke-width="1.646"><tspan y="468.8096" x="89.2541" style="line-height:1.25" font-size="23.0437">sam.html</tspan></text><path d="M-56.414786 268.82346h13.167811M16.008173 448.34203v52.67124h13.167804M16.008173 461.50984H29.175977M-23.495259 331.37056v92.17467h13.167811M-23.495259 384.0418h13.167811M-23.495259 344.53837h13.167811M-56.414786 254.11682v52.67124h13.167804" fill="none" stroke="#000" stroke-width="1.646"/></g></svg>
